<?xml version="1.0" standalone="no"?>
<!DOCTYPE svg PUBLIC "-//W3C//DTD SVG 20010904//EN"
 "http://www.w3.org/TR/2001/REC-SVG-20010904/DTD/svg10.dtd">
<svg version="1.0" xmlns="http://www.w3.org/2000/svg"
 width="460.000000pt" height="460.000000pt" viewBox="0 0 460.000000 460.000000"
 preserveAspectRatio="xMidYMid meet">
<metadata>
Created by potrace 1.11, written by Peter Selinger 2001-2013
</metadata>
<g transform="translate(0.000000,460.000000) scale(0.100000,-0.100000)"
fill="#000000" stroke="none">
<path d="M2278 4581 c-9 -11 -14 -22 -11 -25 4 -3 1 -6 -6 -6 -14 0 -877 -862
-874 -872 2 -5 -1 -8 -7 -8 -16 0 -60 -42 -54 -52 3 -4 1 -8 -5 -8 -18 0 -371
-358 -358 -363 7 -3 5 -6 -6 -6 -18 -1 -194 -170 -189 -183 1 -5 -5 -8 -14 -8
-8 0 -12 -4 -9 -10 3 -5 1 -10 -5 -10 -14 0 -686 -672 -682 -682 1 -5 -2 -8
-8 -8 -5 0 -18 -8 -28 -18 -18 -18 -18 -20 3 -45 11 -15 25 -27 30 -27 6 0 23
-18 39 -40 17 -22 36 -40 43 -40 7 0 13 -3 13 -7 0 -13 78 -93 90 -93 5 0 10
-4 10 -10 0 -15 42 -50 53 -43 6 3 7 1 3 -6 -8 -12 16 -41 33 -41 6 0 11 -4
11 -9 0 -12 220 -231 231 -231 5 0 9 -5 9 -11 0 -16 62 -69 73 -62 6 3 7 1 4
-4 -7 -11 57 -83 73 -83 6 0 10 -4 10 -8 0 -13 128 -140 135 -134 3 3 5 1 5
-4 0 -14 57 -74 69 -74 6 0 11 -4 11 -9 0 -5 299 -308 664 -674 l665 -664 24
26 c13 14 46 47 73 73 27 25 104 102 171 170 68 68 274 274 458 458 185 184
419 418 520 520 102 102 221 221 266 265 44 44 84 85 87 90 4 6 53 54 108 107
56 54 99 100 96 103 -3 3 -1 5 5 5 5 0 59 50 119 111 60 61 116 118 124 126 8
8 68 67 132 130 l117 117 -1127 1127 c-620 620 -1130 1125 -1135 1122 -4 -2
-6 1 -5 7 2 6 -6 18 -17 26 -18 12 -23 11 -37 -5z m47 -200 c-9 -8 -36 -10
-30 -2 2 4 11 8 20 8 8 0 13 -3 10 -6z"/>
</g>
</svg>
